HIERARCHY
ROOT Hips
{
	OFFSET 0.000000 0.000000 0.000000
	CHANNELS 6 Xposition Yposition Zposition Zrotation Yrotation Xrotation 
	JOINT LHipJoint
	{
		OFFSET 0.000000 0.000000 0.000000
		CHANNELS 3 Zrotation Yrotation Xrotation
		JOINT LeftUpLeg
		{
			OFFSET 1.363060 -1.794630 0.839290
			CHANNELS 3 Zrotation Yrotation Xrotation
			JOINT LeftLeg
			{
				OFFSET 2.448110 -6.726130 0.000000
				CHANNELS 3 Zrotation Yrotation Xrotation
				JOINT LeftFoot
				{
					OFFSET 2.562200 -7.039590 0.000000
					CHANNELS 3 Zrotation Yrotation Xrotation
					JOINT LeftToeBase
					{
						OFFSET 0.157640 -0.433110 2.322550
						CHANNELS 3 Zrotation Yrotation Xrotation
						End Site
						{
							OFFSET 0.000000 0.000000 0.000000
						}
					}
				}
			}
		}
	}
	JOINT RHipJoint
	{
		OFFSET 0.000000 0.000000 0.000000
		CHANNELS 3 Zrotation Yrotation Xrotation
		JOINT RightUpLeg
		{
			OFFSET -1.305520 -1.794630 0.839290
			CHANNELS 3 Zrotation Yrotation Xrotation
			JOINT RightLeg
			{
				OFFSET -2.542530 -6.985550 0.000000
				CHANNELS 3 Zrotation Yrotation Xrotation
				JOINT RightFoot
				{
					OFFSET -2.568260 -7.056230 0.000000
					CHANNELS 3 Zrotation Yrotation Xrotation
					JOINT RightToeBase
					{
						OFFSET -0.164730 -0.452590 2.363150
						CHANNELS 3 Zrotation Yrotation Xrotation
						End Site
						{
							OFFSET 0.000000 0.000000 0.000000
						}
					}
				}
			}
		}
	}
	JOINT LowerBack
	{
		OFFSET 0.000000 0.000000 0.000000
		CHANNELS 3 Zrotation Yrotation Xrotation
		JOINT Spine
		{
			OFFSET 0.028270 2.035590 -0.193380
			CHANNELS 3 Zrotation Yrotation Xrotation
			JOINT Spine1
			{
				OFFSET 0.056720 2.048850 -0.042750
				CHANNELS 3 Zrotation Yrotation Xrotation
				JOINT Neck
				{
					OFFSET 0.000000 0.000000 0.000000
					CHANNELS 3 Zrotation Yrotation Xrotation
					JOINT Neck1
					{
						OFFSET -0.054170 1.746240 0.172020
						CHANNELS 3 Zrotation Yrotation Xrotation
						JOINT Head
						{
							OFFSET 0.104070 1.761360 -0.123970
							CHANNELS 3 Zrotation Yrotation Xrotation
							End Site
							{
								OFFSET 0.000000 0.000000 0.000000
							}
						}
					}
				}
				JOINT LeftShoulder
				{
					OFFSET 0.000000 0.000000 0.000000
					CHANNELS 3 Zrotation Yrotation Xrotation
					JOINT LeftArm
					{
						OFFSET 3.362410 1.200890 -0.311210
						CHANNELS 3 Zrotation Yrotation Xrotation
						JOINT LeftForeArm
						{
							OFFSET 4.983000 -0.000000 -0.000000
							CHANNELS 3 Zrotation Yrotation Xrotation
							JOINT LeftHand
							{
								OFFSET 3.483560 -0.000000 -0.000000
								CHANNELS 3 Zrotation Yrotation Xrotation
								JOINT LeftFingerBase
								{
									OFFSET 0.000000 0.000000 0.000000
									CHANNELS 3 Zrotation Yrotation Xrotation
									JOINT LeftHandIndex1
									{
										OFFSET 0.715260 -0.000000 -0.000000
										CHANNELS 3 Zrotation Yrotation Xrotation
										End Site
										{
											OFFSET 0.000000 0.000000 0.000000
										}
									}
								}
								JOINT LThumb
								{
									OFFSET 0.000000 0.000000 0.000000
									CHANNELS 3 Zrotation Yrotation Xrotation
									End Site
									{
										OFFSET 0.000000 0.000000 0.000000
									}
								}
							}
						}
					}
				}
				JOINT RightShoulder
				{
					OFFSET 0.000000 0.000000 0.000000
					CHANNELS 3 Zrotation Yrotation Xrotation
					JOINT RightArm
					{
						OFFSET -3.136600 1.374050 -0.404650
						CHANNELS 3 Zrotation Yrotation Xrotation
						JOINT RightForeArm
						{
							OFFSET -5.241900 -0.000000 -0.000000
							CHANNELS 3 Zrotation Yrotation Xrotation
							JOINT RightHand
							{
								OFFSET -3.444170 -0.000000 -0.000000
								CHANNELS 3 Zrotation Yrotation Xrotation
								JOINT RightFingerBase
								{
									OFFSET 0.000000 0.000000 0.000000
									CHANNELS 3 Zrotation Yrotation Xrotation
									JOINT RightHandIndex1
									{
										OFFSET -0.622530 -0.000000 -0.000000
										CHANNELS 3 Zrotation Yrotation Xrotation
										End Site
										{
											OFFSET 0.000000 0.000000 0.000000
										}
									}
								}
								JOINT RThumb
								{
									OFFSET 0.000000 0.000000 0.000000
									CHANNELS 3 Zrotation Yrotation Xrotation
									End Site
									{
										OFFSET 0.000000 0.000000 0.000000
									}
								}
							}
						}
					}
				}
			}
		}
	}
}
MOTION
Frames: 9
Frame Time: 0.008333
0.477920 17.814259 1.805350 6.395356 1.145408 1.709512 0.471403 2.298495 1.903340 -29.447647 -3.677745 1.401066 -0.422907 4.481746 15.806910 0.713388 -1.667035 -0.353179 0.001798 -0.228433 -0.627588 -2.897564 -2.171091 0.804353 11.213442 13.836113 -37.479578 -6.965747 -16.184268 49.428269 2.407831 -12.856289 -2.969591 -0.040288 1.158543 -3.186371 -5.070697 -1.404413 6.488481 0.426525 -2.461901 -1.244819 4.294620 -1.005784 -2.284908 -8.192747 -1.898947 -11.670035 3.475363 -1.381025 13.596205 3.046901 -1.188085 9.245243 -7.510052 2.575560 -2.327539 -76.507923 -1.995536 28.270727 11.796091 -22.476029 -3.058342 -1.483367 -2.883801 10.940786 17.555373 19.808753 7.433719 -7.125000 0.000000 0.000000 -11.068011 53.704622 -2.394108 5.592232 -2.082737 -2.142264 78.793209 -0.832382 18.798270 -15.215928 23.314827 -4.269214 0.986276 -1.137086 4.631472 -13.512624 18.327838 -4.921074 7.125000 0.000000 0.000000 8.857746 -10.248277 7.229721
0.470809 17.810986 1.905126 6.470185 1.200235 1.829448 0.459653 2.325360 1.933363 -29.469863 -3.447792 1.968560 -0.504594 4.206101 15.076545 0.722363 -1.739911 -0.206848 0.004394 -0.409698 -1.125764 -2.871795 -2.158952 0.781246 10.820582 14.289780 -37.540783 -6.507725 -15.825565 47.766387 2.486442 -13.180038 -2.745077 -0.010464 0.442429 -1.216312 -5.158878 -1.465814 6.443672 0.425105 -2.541934 -1.232744 4.343436 -1.057942 -2.197131 -8.144500 -1.897688 -11.876444 3.461162 -1.375872 13.576612 3.029504 -1.179856 9.281529 -7.488671 2.549734 -2.331188 -76.310801 -2.351081 28.460980 11.957703 -22.727804 -3.138144 -1.458264 -2.930206 10.738849 17.474367 20.276260 7.542356 -7.125000 0.000000 0.000000 -11.386634 54.195065 -2.600724 5.594986 -2.081254 -2.142539 78.879956 -0.871910 18.732536 -15.185563 23.273401 -4.252758 0.983881 -1.153736 4.780228 -13.523949 18.447084 -4.958023 7.125000 0.000000 0.000000 8.853438 -10.112632 7.250764
0.465293 17.809774 2.006031 6.533956 1.275862 1.922462 0.447819 2.355383 1.967724 -29.477077 -3.228230 2.574899 -0.582160 3.927542 14.343502 0.724460 -1.786499 -0.047910 0.004553 -0.433141 -1.190147 -2.845020 -2.149986 0.757409 10.455041 14.680275 -37.525444 -6.066980 -15.444287 46.082750 2.585512 -13.628308 -2.038154 -0.006036 0.425607 -1.169514 -5.224928 -1.517818 6.426557 0.434816 -2.611258 -1.238531 4.413557 -1.098925 -2.188520 -8.109800 -1.879252 -11.936430 3.412954 -1.351217 13.590428 3.000684 -1.169951 9.298321 -7.458264 2.533167 -2.340920 -76.191462 -2.538586 28.662074 12.193839 -23.095163 -3.260818 -1.428523 -2.971558 10.554071 17.379945 20.701665 7.626245 -7.125000 0.000000 0.000000 -11.712719 54.632774 -2.803190 5.594071 -2.086352 -2.145972 78.897409 -1.019167 18.687349 -15.157189 23.241491 -4.240131 0.978773 -1.152277 4.822512 -13.461253 18.416616 -4.926818 7.125000 0.000000 0.000000 8.895849 -10.151981 7.279079
0.460496 17.809492 2.107444 6.592744 1.360861 2.003346 0.435947 2.386828 2.004039 -29.477531 -3.013349 3.198740 -0.657871 3.647671 13.609254 0.723459 -1.821244 0.116709 0.003614 -0.385477 -1.059086 -2.817791 -2.142449 0.733243 10.101808 15.042306 -37.475618 -5.634021 -15.052838 44.389311 2.693799 -14.132682 -1.113884 -0.013050 0.723849 -1.989239 -5.281007 -1.565587 6.421920 0.449541 -2.675756 -1.252365 4.493276 -1.134873 -2.215578 -8.081203 -1.853076 -11.930445 3.349425 -1.317775 13.619298 2.966717 -1.159292 9.306329 -7.423790 2.520772 -2.353392 -76.107167 -2.650380 28.868053 12.463551 -23.514598 -3.402807 -1.396693 -3.010632 10.377023 17.279479 21.108099 7.698983 -7.125000 0.000000 0.000000 -12.042167 55.046724 -3.003785 5.591501 -2.094417 -2.150827 78.883641 -1.214960 18.651418 -15.129711 23.213868 -4.229229 0.972442 -1.142658 4.816824 -13.365209 18.318696 -4.864905 7.125000 0.000000 0.000000 8.959308 -10.270174 7.310671
0.455997 17.808516 2.207219 6.580231 1.512251 2.086355 0.425197 2.423691 2.041066 -29.386394 -2.824473 3.870830 -0.737607 3.336543 12.792600 0.711027 -1.812790 0.349848 0.004082 -0.409889 -1.126244 -2.786363 -2.137058 0.702975 9.830477 15.340777 -37.382504 -5.230897 -14.643065 42.688924 2.797156 -14.776320 0.471298 -0.133686 1.985426 -5.478421 -5.233602 -1.638194 6.420045 0.460273 -2.762031 -1.241199 4.507197 -1.187450 -2.165045 -8.041538 -1.848880 -12.032464 3.308652 -1.312590 13.643734 2.940128 -1.157029 9.337246 -7.398212 2.501008 -2.361481 -75.988263 -2.885985 28.980159 12.713405 -23.894444 -3.544053 -1.380346 -2.999004 10.258694 17.262298 21.003438 7.652858 -7.125000 0.000000 0.000000 -12.011481 54.921735 -2.958840 5.602607 -2.096289 -2.145180 78.897490 -1.226497 18.544962 -14.997005 23.028559 -4.157845 0.973443 -1.150211 4.899240 -13.374361 18.293668 -4.864583 7.125000 0.000000 0.000000 8.950789 -10.288189 7.300279
0.451442 17.807359 2.307124 6.556480 1.672383 2.171843 0.414856 2.461525 2.077985 -29.280607 -2.638514 4.552656 -0.818146 3.017799 11.956097 0.696949 -1.798894 0.600909 0.004696 -0.441704 -1.213758 -2.755233 -2.132004 0.672297 9.573210 15.629271 -37.284911 -4.830952 -14.228997 40.992687 2.898859 -15.403479 1.948835 -0.250887 3.158533 -8.724082 -5.173181 -1.715437 6.410047 0.471731 -2.852521 -1.225814 4.515641 -1.243409 -2.096452 -8.004055 -1.848502 -12.154360 3.270710 -1.310930 13.665843 2.915091 -1.155962 9.371338 -7.374011 2.480493 -2.368298 -75.868835 -3.146703 29.066458 12.955121 -24.260102 -3.682236 -1.367166 -2.979814 10.150028 17.262608 20.822411 7.591538 -7.125000 0.000000 0.000000 -11.921383 54.717439 -2.876404 5.615681 -2.097695 -2.138345 78.911021 -1.213748 18.436086 -14.852721 22.826490 -4.080132 0.974555 -1.159625 4.986832 -13.385486 18.278176 -4.867836 7.125000 0.000000 0.000000 8.941116 -10.294563 7.291029
0.445573 17.805045 2.411866 6.513546 1.826853 2.287204 0.407981 2.502420 2.112105 -29.147249 -2.443397 5.276589 -0.902081 2.653877 11.003670 0.681930 -1.792038 0.967745 0.004641 -0.438832 -1.205805 -2.736097 -2.127519 0.647513 9.353775 15.901233 -37.207724 -4.418209 -13.790771 39.366258 2.987276 -15.542908 0.709377 -0.106957 1.306611 -3.609551 -5.129939 -1.809198 6.283840 0.500637 -2.959578 -1.199886 4.573277 -1.314253 -1.927307 -8.017263 -1.858860 -12.344321 3.228549 -1.304176 13.664494 2.897362 -1.155410 9.405636 -7.351863 2.463622 -2.365990 -75.807472 -3.517259 28.977020 13.123048 -24.506495 -3.779979 -1.368086 -2.952850 10.062750 17.344968 20.561151 7.546636 -7.125000 0.000000 0.000000 -11.698198 54.445210 -2.744459 5.629884 -2.104398 -2.135070 78.868141 -1.216408 18.427088 -14.748569 22.692626 -4.029927 0.963382 -1.162086 4.979099 -13.225279 18.255604 -4.803824 7.125000 0.000000 0.000000 9.051356 -10.330683 7.376526
0.439820 17.802542 2.516652 6.517301 1.986865 2.394173 0.403806 2.543735 2.145663 -29.067723 -2.288864 6.041919 -0.985965 2.276974 10.017498 0.657109 -1.743980 1.347074 0.005197 -0.460685 -1.265851 -2.714569 -2.123507 0.622298 9.088014 16.147867 -37.121993 -4.019678 -13.352425 37.746333 3.076881 -15.745969 -0.160283 -0.000939 0.012631 -0.034780 -5.130124 -1.902673 6.161599 0.519921 -3.070298 -1.180614 4.626422 -1.384959 -1.786153 -8.033835 -1.856502 -12.453118 3.208937 -1.287374 13.647810 2.892451 -1.148328 9.414043 -7.333619 2.451094 -2.364347 -75.732341 -3.848345 28.910711 13.281860 -24.740317 -3.871221 -1.369402 -2.934812 9.965581 17.437416 20.389739 7.535137 -7.125000 0.000000 0.000000 -11.509113 54.273743 -2.649559 5.640183 -2.112197 -2.131421 78.850710 -1.258919 18.381146 -14.646167 22.560661 -3.980328 0.953996 -1.162445 5.013447 -13.096069 18.203574 -4.743810 7.125000 0.000000 0.000000 9.139175 -10.396166 7.437681
0.434402 17.799494 2.621564 6.655629 2.162852 2.476954 0.407418 2.586263 2.177605 -29.143358 -2.251309 6.926569 -1.069699 1.862652 8.934060 0.604038 -1.577162 1.762406 0.007517 -0.553803 -1.521898 -2.686147 -2.120859 0.595843 8.688726 16.321497 -37.011637 -3.662112 -12.913735 36.145156 3.169909 -16.132441 0.035944 -0.004198 0.326836 -0.898137 -5.255478 -1.995323 6.050791 0.511474 -3.191576 -1.180530 4.666622 -1.455270 -1.725677 -8.060102 -1.817490 -12.327976 3.254320 -1.241608 13.586927 2.924485 -1.122425 9.347822 -7.326629 2.451086 -2.364621 -75.617523 -4.065664 28.911070 13.414394 -24.937908 -3.943729 -1.371858 -2.942504 9.839901 17.558947 20.477303 7.619915 -7.125000 0.000000 0.000000 -11.418314 54.392708 -2.661433 5.639232 -2.123155 -2.126693 78.906636 -1.416298 18.228721 -14.548809 22.434172 -3.932478 0.949766 -1.156743 5.169087 -13.056203 18.066637 -4.695318 7.125000 0.000000 0.000000 9.162372 -10.546282 7.428679
